<?xml version="1.0" encoding="UTF-8"?>
<svg xmlns="http://www.w3.org/2000/svg" width="900" height="560" viewBox="0 0 900 560" font-family="Georgia, serif">
  <rect width="900" height="560" fill="#faf7f2"/>
  <rect height="52" width="900" fill="#1a1a1a"/>
  <text x="24" y="34" fill="#f5f1e8" font-size="20" font-weight="bold">news-intell.  &nbsp;/ Administration</text>
  <g font-family="sans-serif">
    <rect x="40" y="80" width="170" height="70" rx="8" fill="#fff" stroke="#e2ddd5"/>
    <text x="55" y="112" fill="#b3261e" font-size="26" font-weight="bold">4</text>
    <text x="55" y="136" fill="#4a4a4a" font-size="11">articles analysés</text>
    <rect x="230" y="80" width="170" height="70" rx="8" fill="#fff" stroke="#e2ddd5"/>
    <text x="245" y="112" fill="#b3261e" font-size="26" font-weight="bold">8</text>
    <text x="245" y="136" fill="#4a4a4a" font-size="11">sources configurées</text>
    <rect x="420" y="80" width="250" height="70" rx="8" fill="#fff" stroke="#e2ddd5"/>
    <text x="435" y="136" fill="#4a4a4a" font-size="12">⚙ Lancer une analyse · Configurer le projet</text>
  </g>
  <text x="40" y="200" fill="#1a1a1a" font-size="18" font-weight="bold">Statistiques</text>
  <g font-family="sans-serif">
    <text x="40" y="232" fill="#1a1a1a" font-size="13" font-weight="bold">Par thème</text>
    <rect x="40" y="244" width="520" height="18" rx="4" fill="#b3261e"/>
    <rect x="40" y="268" width="380" height="18" rx="4" fill="#e2ddd5"/>
    <rect x="40" y="292" width="300" height="18" rx="4" fill="#e2ddd5"/>
    <text x="40" y="340" fill="#1a1a1a" font-size="13" font-weight="bold">Par source</text>
    <rect x="40" y="352" width="240" height="16" rx="4" fill="#1a1a1a"/>
    <rect x="40" y="374" width="200" height="16" rx="4" fill="#1a1a1a"/>
    <rect x="40" y="396" width="180" height="16" rx="4" fill="#1a1a1a"/>
    <text x="620" y="232" fill="#1a1a1a" font-size="13" font-weight="bold">Sources</text>
    <rect x="620" y="244" width="240" height="18" rx="4" fill="#f0ece4"/>
    <rect x="620" y="268" width="240" height="18" rx="4" fill="#f0ece4"/>
    <rect x="620" y="292" width="240" height="18" rx="4" fill="#f0ece4"/>
  </g>
</svg>
